<svg xmlns="http://www.w3.org/2000/svg" xmlns:xlink="http://www.w3.org/1999/xlink" width="35" height="35"><rect id="backgroundrect" width="100%" height="100%" x="0" y="0" fill="none" stroke="none"/><defs><linearGradient id="a" x1="-0.03856898716517857" y1="0.120013427734375" x2="0.9314322335379465" y2="0.8099853515625"><stop offset="0" stop-color="#8468f5"/><stop offset="1" stop-color="#ec74e7"/></linearGradient></defs><title>group-9</title><g class="currentLayer" style=""><title>Layer 1</title><rect width="35" height="35" rx="10" ry="10" fill="url(#a)" id="svg_1"/><g style="isolation:isolate" id="svg_2"><g style="isolation:isolate" id="svg_3"><path d="M24.52,16.86A10.21,10.21,0,0,1,23.74,21a7.07,7.07,0,0,1-2.14,2.83l2.83,2.23-2.23,2-3.64-2.92a7.67,7.67,0,0,1-1.29.1,7.09,7.09,0,0,1-3.78-1,6.73,6.73,0,0,1-2.58-2.91A10,10,0,0,1,10,17v-.84a10.35,10.35,0,0,1,.91-4.44,6.73,6.73,0,0,1,2.57-2.94,7,7,0,0,1,3.79-1,7,7,0,0,1,3.79,1,6.73,6.73,0,0,1,2.57,2.94,10.29,10.29,0,0,1,.91,4.42ZM21,16.08A7.19,7.19,0,0,0,20,12a3.12,3.12,0,0,0-2.74-1.39A3.13,3.13,0,0,0,14.52,12a7,7,0,0,0-1,4v.84a7.26,7.26,0,0,0,1,4.05,3.12,3.12,0,0,0,2.76,1.44A3.09,3.09,0,0,0,20,21a7.08,7.08,0,0,0,1-4.05Z" fill="#fff" id="svg_4"/></g></g></g></svg>